# xmcd
#
# Track frame offsets:
#	150
#	9865
#	23667
#	40169
#	55546
#	67023
#	81950
#	99090
#	110021
#	128759
#	142615
#	153959
#	171849
#	185389
#
# Disc length: 2603 seconds
#
# Revision: 1
# Processed by: cddbd v1.5.2PL0 Copyright (c) Steve Scherf et al.
# Submitted via: audiograbber 1.83.01
#
DISCID=9f0a290e
DTITLE=Eamon McCann - My Country
DYEAR=1900
DGENRE=
TTITLE0=Buicks To The Moon
TTITLE1=Leave Me A Picture Of You
TTITLE2=Donegal We're Goin' Home
TTITLE3=I Still Can't Say Goodbye
TTITLE4=It Must Be Love
TTITLE5=Another Good Reason
TTITLE6=Who Needs Pictures
TTITLE7=Ain't Love A Lot Like That
TTITLE8=In My Next Life
TTITLE9=Charley Pride Selection
TTITLE10=Creggan
TTITLE11=Wedding Bells
TTITLE12=Lyin' In The Arms Of Mary
TTITLE13=The Party's Over
EXTD=
EXTT0=
EXTT1=
EXTT2=
EXTT3=
EXTT4=
EXTT5=
EXTT6=
EXTT7=
EXTT8=
EXTT9=
EXTT10=
EXTT11=
EXTT12=
EXTT13=
PLAYORDER=
